<svg xmlns="http://www.w3.org/2000/svg" xmlns:xlink="http://www.w3.org/1999/xlink" width="500" zoomAndPan="magnify" viewBox="0 0 375 374.999991" height="500" preserveAspectRatio="xMidYMid meet" version="1.0">
	<defs>
		<g />
		<clipPath id="ded1915a2c">
			<path d="M 83.300781 54 L 291.800781 54 L 291.800781 255 L 83.300781 255 Z M 83.300781 54 " clip-rule="nonzero" />
		</clipPath>
	</defs>
	<path fill="#4eb1cb" d="M 164.898438 314.132812 C 162.867188 320.070312 158.988281 320.28125 156.285156 314.625 L 147.445312 296.085938 C 144.753906 290.429688 137.949219 288.097656 132.328125 290.921875 L 113.96875 300.148438 C 108.351562 302.972656 105.421875 300.417969 107.457031 294.492188 L 135.066406 214.066406 C 137.101562 208.140625 143.625 204.949219 149.574219 206.976562 L 185.398438 219.230469 C 191.335938 221.257812 194.53125 227.78125 192.5 233.71875 L 164.898438 314.132812 " fill-opacity="1" fill-rule="nonzero" />
	<path fill="#4eb1cb" d="M 224.210938 316.691406 C 226.761719 322.429688 230.652344 322.300781 232.828125 316.410156 L 239.960938 297.167969 C 242.136719 291.277344 248.707031 288.355469 254.550781 290.652344 L 273.675781 298.199219 C 279.515625 300.5 282.195312 297.707031 279.644531 291.96875 L 244.898438 214.359375 C 242.335938 208.632812 235.554688 206.039062 229.808594 208.597656 L 195.238281 224.015625 C 189.5 226.585938 186.902344 233.367188 189.464844 239.082031 L 224.210938 316.691406 " fill-opacity="1" fill-rule="nonzero" />
	<g clip-path="url(#ded1915a2c)">
		<path fill="#1f3a68" d="M 291.339844 156.769531 C 291.105469 167.152344 275.027344 174.558594 271.769531 183.875 C 268.394531 193.507812 276.25 209.277344 270.171875 217.234375 C 264.046875 225.273438 246.6875 221.902344 238.375 227.664062 C 230.148438 233.367188 227.269531 250.816406 217.464844 253.75 C 208.003906 256.589844 196 243.730469 185.585938 243.507812 C 175.183594 243.273438 162.632812 255.59375 153.296875 252.34375 C 143.636719 248.984375 141.53125 231.433594 133.550781 225.367188 C 125.5 219.242188 108.019531 221.855469 102.238281 213.5625 C 96.527344 205.335938 105.070312 189.929688 102.121094 180.144531 C 99.277344 170.707031 83.539062 162.601562 83.761719 152.214844 C 83.996094 141.820312 100.074219 134.414062 103.332031 125.109375 C 106.703125 115.464844 98.851562 99.695312 104.917969 91.738281 C 111.054688 83.710938 128.414062 87.082031 136.726562 81.320312 C 144.953125 75.605469 147.832031 58.167969 157.636719 55.222656 C 167.097656 52.386719 179.097656 65.253906 189.511719 65.476562 C 199.917969 65.699219 212.46875 53.382812 221.789062 56.628906 C 231.464844 59.996094 233.570312 77.550781 241.550781 83.617188 C 249.601562 89.742188 267.078125 87.128906 272.863281 95.421875 C 278.574219 103.636719 270.042969 119.042969 272.992188 128.828125 C 275.824219 138.277344 291.5625 146.371094 291.339844 156.769531 " fill-opacity="1" fill-rule="nonzero" />
	</g>
	<path fill="#ffffff" d="M 240.398438 155.652344 C 239.761719 184.789062 215.585938 207.894531 186.386719 207.25 C 157.203125 206.613281 134.058594 182.464844 134.703125 153.332031 C 135.339844 124.195312 159.527344 101.089844 188.714844 101.734375 C 217.898438 102.371094 241.042969 126.507812 240.398438 155.652344 " fill-opacity="1" fill-rule="nonzero" />
	<g fill="#1b519d" fill-opacity="1">
		<g transform="translate(141.679711, 175.75017)">
			<g>
				<path d="M 4.859375 0 L 4.859375 -38.578125 L 13.03125 -38.578125 L 13.03125 0 Z M 4.859375 0 " />
			</g>
		</g>
	</g>
	<g fill="#000000" fill-opacity="1">
		<g transform="translate(162.159479, 171.100051)">
			<g>
				<path d="M 5.984375 0 L 3.5 0 L 3.5 -9.625 L 0.328125 -9.625 L 0.328125 -11.6875 L 9.15625 -11.6875 L 9.15625 -9.625 L 5.984375 -9.625 Z M 5.984375 0 " />
			</g>
		</g>
	</g>
	<g fill="#000000" fill-opacity="1">
		<g transform="translate(175.200496, 171.100051)">
			<g>
				<path d="M 8.375 -3.25 C 8.375 -2.1875 7.992188 -1.351562 7.234375 -0.75 C 6.472656 -0.144531 5.414062 0.15625 4.0625 0.15625 C 2.8125 0.15625 1.707031 -0.078125 0.75 -0.546875 L 0.75 -2.84375 C 1.539062 -2.488281 2.207031 -2.238281 2.75 -2.09375 C 3.300781 -1.957031 3.800781 -1.890625 4.25 -1.890625 C 4.789062 -1.890625 5.207031 -1.992188 5.5 -2.203125 C 5.789062 -2.410156 5.9375 -2.71875 5.9375 -3.125 C 5.9375 -3.351562 5.875 -3.554688 5.75 -3.734375 C 5.625 -3.910156 5.4375 -4.082031 5.1875 -4.25 C 4.9375 -4.414062 4.429688 -4.679688 3.671875 -5.046875 C 2.953125 -5.378906 2.414062 -5.695312 2.0625 -6 C 1.707031 -6.3125 1.421875 -6.671875 1.203125 -7.078125 C 0.992188 -7.492188 0.890625 -7.976562 0.890625 -8.53125 C 0.890625 -9.5625 1.238281 -10.375 1.9375 -10.96875 C 2.632812 -11.5625 3.601562 -11.859375 4.84375 -11.859375 C 5.445312 -11.859375 6.023438 -11.785156 6.578125 -11.640625 C 7.128906 -11.492188 7.707031 -11.289062 8.3125 -11.03125 L 7.515625 -9.109375 C 6.890625 -9.359375 6.375 -9.535156 5.96875 -9.640625 C 5.5625 -9.742188 5.160156 -9.796875 4.765625 -9.796875 C 4.296875 -9.796875 3.9375 -9.6875 3.6875 -9.46875 C 3.4375 -9.25 3.3125 -8.960938 3.3125 -8.609375 C 3.3125 -8.390625 3.359375 -8.195312 3.453125 -8.03125 C 3.554688 -7.875 3.71875 -7.71875 3.9375 -7.5625 C 4.164062 -7.414062 4.691406 -7.144531 5.515625 -6.75 C 6.609375 -6.226562 7.359375 -5.703125 7.765625 -5.171875 C 8.171875 -4.648438 8.375 -4.007812 8.375 -3.25 Z M 8.375 -3.25 " />
			</g>
		</g>
	</g>
	<g fill="#000000" fill-opacity="1">
		<g transform="translate(187.777629, 171.100051)">
			<g>
				<path d="M 12.078125 -5.859375 C 12.078125 -3.921875 11.597656 -2.429688 10.640625 -1.390625 C 9.679688 -0.359375 8.304688 0.15625 6.515625 0.15625 C 4.722656 0.15625 3.347656 -0.359375 2.390625 -1.390625 C 1.429688 -2.429688 0.953125 -3.925781 0.953125 -5.875 C 0.953125 -7.820312 1.429688 -9.304688 2.390625 -10.328125 C 3.359375 -11.359375 4.738281 -11.875 6.53125 -11.875 C 8.332031 -11.875 9.707031 -11.351562 10.65625 -10.3125 C 11.601562 -9.28125 12.078125 -7.796875 12.078125 -5.859375 Z M 3.546875 -5.859375 C 3.546875 -4.554688 3.789062 -3.570312 4.28125 -2.90625 C 4.78125 -2.25 5.523438 -1.921875 6.515625 -1.921875 C 8.492188 -1.921875 9.484375 -3.234375 9.484375 -5.859375 C 9.484375 -8.492188 8.5 -9.8125 6.53125 -9.8125 C 5.539062 -9.8125 4.796875 -9.476562 4.296875 -8.8125 C 3.796875 -8.144531 3.546875 -7.160156 3.546875 -5.859375 Z M 3.546875 -5.859375 " />
			</g>
		</g>
	</g>
	<g fill="#000000" fill-opacity="1">
		<g transform="translate(204.369761, 171.100051)">
			<g>
				<path d="M 8.203125 0 L 1.46875 0 L 1.46875 -11.6875 L 8.203125 -11.6875 L 8.203125 -9.65625 L 3.953125 -9.65625 L 3.953125 -7.09375 L 7.90625 -7.09375 L 7.90625 -5.0625 L 3.953125 -5.0625 L 3.953125 -2.046875 L 8.203125 -2.046875 Z M 8.203125 0 " />
			</g>
		</g>
	</g>
	<g fill="#000000" fill-opacity="1">
		<g transform="translate(217.098854, 171.100051)">
			<g>
				<path d="M 11.046875 0 L 8.578125 0 L 8.578125 -5.046875 L 3.953125 -5.046875 L 3.953125 0 L 1.46875 0 L 1.46875 -11.6875 L 3.953125 -11.6875 L 3.953125 -7.109375 L 8.578125 -7.109375 L 8.578125 -11.6875 L 11.046875 -11.6875 Z M 11.046875 0 " />
			</g>
		</g>
	</g>
	<g fill="#000000" fill-opacity="1">
		<g transform="translate(160.871538, 152.071413)">
			<g>
				<path d="M 11.125 0 L 9.5 0 L 2.984375 -9.875 L 2.984375 0 L 1.375 0 L 1.375 -12.421875 L 2.984375 -12.421875 L 9.5 -2.5625 L 9.5 -12.421875 L 11.125 -12.421875 Z M 11.125 0 " />
			</g>
		</g>
	</g>
	<g fill="#000000" fill-opacity="1">
		<g transform="translate(173.382353, 152.071413)">
			<g>
				<path d="M 5.296875 0.125 C 4.484375 0.125 3.753906 -0.0195312 3.109375 -0.3125 C 2.460938 -0.601562 1.953125 -1.003906 1.578125 -1.515625 C 1.210938 -2.035156 1.023438 -2.632812 1.015625 -3.3125 L 2.734375 -3.3125 C 2.796875 -2.726562 3.035156 -2.238281 3.453125 -1.84375 C 3.878906 -1.445312 4.492188 -1.25 5.296875 -1.25 C 6.066406 -1.25 6.675781 -1.441406 7.125 -1.828125 C 7.570312 -2.210938 7.796875 -2.707031 7.796875 -3.3125 C 7.796875 -3.78125 7.664062 -4.160156 7.40625 -4.453125 C 7.144531 -4.753906 6.816406 -4.984375 6.421875 -5.140625 C 6.035156 -5.296875 5.507812 -5.460938 4.84375 -5.640625 C 4.019531 -5.859375 3.363281 -6.070312 2.875 -6.28125 C 2.382812 -6.5 1.960938 -6.832031 1.609375 -7.28125 C 1.253906 -7.738281 1.078125 -8.351562 1.078125 -9.125 C 1.078125 -9.800781 1.25 -10.398438 1.59375 -10.921875 C 1.945312 -11.441406 2.429688 -11.84375 3.046875 -12.125 C 3.671875 -12.414062 4.390625 -12.5625 5.203125 -12.5625 C 6.359375 -12.5625 7.304688 -12.269531 8.046875 -11.6875 C 8.796875 -11.113281 9.21875 -10.34375 9.3125 -9.375 L 7.53125 -9.375 C 7.46875 -9.851562 7.21875 -10.269531 6.78125 -10.625 C 6.34375 -10.988281 5.757812 -11.171875 5.03125 -11.171875 C 4.351562 -11.171875 3.800781 -10.992188 3.375 -10.640625 C 2.945312 -10.296875 2.734375 -9.8125 2.734375 -9.1875 C 2.734375 -8.726562 2.859375 -8.359375 3.109375 -8.078125 C 3.367188 -7.796875 3.6875 -7.578125 4.0625 -7.421875 C 4.4375 -7.273438 4.960938 -7.109375 5.640625 -6.921875 C 6.460938 -6.691406 7.117188 -6.46875 7.609375 -6.25 C 8.109375 -6.03125 8.535156 -5.691406 8.890625 -5.234375 C 9.253906 -4.785156 9.4375 -4.164062 9.4375 -3.375 C 9.4375 -2.769531 9.273438 -2.203125 8.953125 -1.671875 C 8.628906 -1.140625 8.148438 -0.707031 7.515625 -0.375 C 6.890625 -0.0390625 6.148438 0.125 5.296875 0.125 Z M 5.296875 0.125 " />
			</g>
		</g>
	</g>
	<g fill="#000000" fill-opacity="1">
		<g transform="translate(183.828795, 152.071413)">
			<g>
				<path d="M 2.984375 -12.40625 L 2.984375 0 L 1.375 0 L 1.375 -12.40625 Z M 2.984375 -12.40625 " />
			</g>
		</g>
	</g>
	<g fill="#000000" fill-opacity="1">
		<g transform="translate(188.206686, 152.071413)">
			<g>
				<path d="M 10.765625 -8.8125 C 10.421875 -9.53125 9.921875 -10.085938 9.265625 -10.484375 C 8.617188 -10.890625 7.863281 -11.09375 7 -11.09375 C 6.125 -11.09375 5.335938 -10.890625 4.640625 -10.484375 C 3.953125 -10.085938 3.410156 -9.519531 3.015625 -8.78125 C 2.617188 -8.039062 2.421875 -7.1875 2.421875 -6.21875 C 2.421875 -5.238281 2.617188 -4.378906 3.015625 -3.640625 C 3.410156 -2.910156 3.953125 -2.347656 4.640625 -1.953125 C 5.335938 -1.554688 6.125 -1.359375 7 -1.359375 C 8.207031 -1.359375 9.203125 -1.71875 9.984375 -2.4375 C 10.765625 -3.164062 11.222656 -4.144531 11.359375 -5.375 L 6.40625 -5.375 L 6.40625 -6.6875 L 13.078125 -6.6875 L 13.078125 -5.453125 C 12.984375 -4.429688 12.660156 -3.492188 12.109375 -2.640625 C 11.566406 -1.796875 10.847656 -1.125 9.953125 -0.625 C 9.066406 -0.132812 8.082031 0.109375 7 0.109375 C 5.84375 0.109375 4.789062 -0.160156 3.84375 -0.703125 C 2.894531 -1.242188 2.144531 -1.992188 1.59375 -2.953125 C 1.039062 -3.910156 0.765625 -5 0.765625 -6.21875 C 0.765625 -7.425781 1.039062 -8.507812 1.59375 -9.46875 C 2.144531 -10.4375 2.894531 -11.191406 3.84375 -11.734375 C 4.789062 -12.273438 5.84375 -12.546875 7 -12.546875 C 8.3125 -12.546875 9.472656 -12.21875 10.484375 -11.5625 C 11.503906 -10.914062 12.242188 -10 12.703125 -8.8125 Z M 10.765625 -8.8125 " />
			</g>
		</g>
	</g>
	<g fill="#000000" fill-opacity="1">
		<g transform="translate(202.052227, 152.071413)">
			<g>
				<path d="M 11.125 0 L 9.5 0 L 2.984375 -9.875 L 2.984375 0 L 1.375 0 L 1.375 -12.421875 L 2.984375 -12.421875 L 9.5 -2.5625 L 9.5 -12.421875 L 11.125 -12.421875 Z M 11.125 0 " />
			</g>
		</g>
	</g>
	<g fill="#000000" fill-opacity="1">
		<g transform="translate(214.563042, 152.071413)">
			<g>
				<path d="M 2.984375 -12.40625 L 2.984375 0 L 1.375 0 L 1.375 -12.40625 Z M 2.984375 -12.40625 " />
			</g>
		</g>
	</g>
	<g fill="#000000" fill-opacity="1">
		<g transform="translate(218.940933, 152.071413)">
			<g>
				<path d="M 8.703125 -2.765625 L 3.296875 -2.765625 L 2.296875 0 L 0.59375 0 L 5.078125 -12.328125 L 6.9375 -12.328125 L 11.40625 0 L 9.703125 0 Z M 8.234375 -4.078125 L 6 -10.34375 L 3.75 -4.078125 Z M 8.234375 -4.078125 " />
			</g>
		</g>
	</g>
</svg>
